<svg width="20" height="20" viewBox="0 0 20 20" fill="none" xmlns="http://www.w3.org/2000/svg">
<path d="M1.66663 5.00002C1.66663 4.11597 2.01782 3.26812 2.64294 2.643C3.26806 2.01788 4.1159 1.66669 4.99996 1.66669H15C15.884 1.66669 16.7319 2.01788 17.357 2.643C17.9821 3.26812 18.3333 4.11597 18.3333 5.00002V15C18.3333 15.8841 17.9821 16.7319 17.357 17.357C16.7319 17.9822 15.884 18.3334 15 18.3334H4.99996C4.1159 18.3334 3.26806 17.9822 2.64294 17.357C2.01782 16.7319 1.66663 15.8841 1.66663 15V5.00002Z" stroke="white" stroke-width="1.5" stroke-linecap="round" stroke-linejoin="round"/>
<path d="M7.5 13.75V7.31671C7.5 7.13094 7.56209 6.95049 7.67638 6.80404C7.79067 6.65758 7.95063 6.55352 8.13083 6.50838L13.1308 5.25838C13.2537 5.2276 13.382 5.22523 13.5059 5.25146C13.6298 5.2777 13.7461 5.33183 13.846 5.40976C13.9459 5.48769 14.0267 5.58736 14.0822 5.7012C14.1378 5.81503 14.1667 5.94004 14.1667 6.06671V12.5" stroke="white" stroke-width="1.5" stroke-linecap="round" stroke-linejoin="round"/>
<path d="M7.5 9.16667L14.1667 7.5" stroke="white" stroke-width="1.5"/>
<path d="M6.25 15C6.94036 15 7.5 14.4404 7.5 13.75C7.5 13.0596 6.94036 12.5 6.25 12.5C5.55964 12.5 5 13.0596 5 13.75C5 14.4404 5.55964 15 6.25 15Z" stroke="white" stroke-width="1.5"/>
<path d="M12.9166 14.1667C13.607 14.1667 14.1666 13.607 14.1666 12.9167C14.1666 12.2263 13.607 11.6667 12.9166 11.6667C12.2263 11.6667 11.6666 12.2263 11.6666 12.9167C11.6666 13.607 12.2263 14.1667 12.9166 14.1667Z" stroke="white" stroke-width="1.5"/>
</svg>
