<svg width="15" height="20" viewBox="0 0 15 20" fill="none" xmlns="http://www.w3.org/2000/svg">
<path d="M8.33333 17.0971C8.33333 18.7009 6.46667 20 4.16667 20C1.86667 20 0 18.7009 0 17.0971C0 15.4933 1.86667 14.1942 4.16667 14.1942C6.46667 14.1942 8.33333 15.4933 8.33333 17.0971Z" fill="white"/>
<path fill-rule="evenodd" clip-rule="evenodd" d="M8.33329 2.58264V17.0971H6.66663V2.58264H8.33329Z" fill="white"/>
<path d="M6.66663 2.32143C6.66686 1.98601 6.80048 1.66102 7.04477 1.4017C7.28906 1.14239 7.62894 0.96476 8.00663 0.899018L13.0066 0.0281524C13.2483 -0.0139201 13.4977 -0.00878096 13.7369 0.0431997C13.976 0.0951805 14.199 0.192709 14.3896 0.328757C14.5803 0.464806 14.7339 0.635989 14.8395 0.829972C14.945 1.02396 14.9998 1.23591 15 1.45057V4.03413L6.66663 5.48558V2.32143Z" fill="white"/>
</svg>
