<svg width="21" height="20" viewBox="0 0 21 20" fill="none" xmlns="http://www.w3.org/2000/svg">
<path d="M19.8171 9.40296L11.1921 0.782422L10.6139 0.204297C10.4822 0.0734415 10.3041 0 10.1184 0C9.93272 0 9.75458 0.0734415 9.62286 0.204297L0.419735 9.40296C0.28476 9.53741 0.178087 9.69753 0.106012 9.87389C0.0339379 10.0502 -0.00207729 10.2392 9.25216e-05 10.4297C0.00902109 11.2155 0.663039 11.8427 1.44875 11.8427H2.39741V19.1128H17.8394V11.8427H18.8081C19.1898 11.8427 19.5492 11.6931 19.8193 11.423C19.9523 11.2905 20.0576 11.1329 20.1293 10.9593C20.2009 10.7857 20.2375 10.5997 20.2367 10.4119C20.2367 10.0324 20.0871 9.67305 19.8171 9.40296ZM11.3684 17.5056H8.8684V12.9521H11.3684V17.5056ZM16.2322 10.2355V17.5056H12.797V12.4164C12.797 11.923 12.3974 11.5235 11.9041 11.5235H8.33268C7.83938 11.5235 7.43982 11.923 7.43982 12.4164V17.5056H4.00456V10.2355H1.8617L10.1206 1.98332L10.6363 2.49894L18.3773 10.2355H16.2322Z" fill="white"/>
</svg>
