<svg width="254" height="36" viewBox="0 0 254 36" fill="none" xmlns="http://www.w3.org/2000/svg">
<path d="M1.75547 23.6C1.27547 26.28 0.955469 28.28 0.595469 30H10.1955C10.4755 28.24 10.8355 26.24 11.2755 23.6L11.3555 23.04H23.7955L24.9955 25.2C25.9555 26.96 26.8355 28.64 27.4755 30H37.8355C36.7555 28 35.6355 25.88 34.5955 23.8C34.0755 22.84 33.5555 21.88 32.9955 20.92C37.5955 19.68 39.6355 17.24 40.4755 12.36C41.8355 4.68 37.5155 1.6 27.3155 1.6H5.59547C5.39547 3 5.11547 4.48 4.79547 6.4L1.75547 23.6ZM26.1955 9.44C30.1955 9.44 31.1955 10.32 30.8355 12.36C30.4755 14.4 29.1555 15.36 25.1555 15.36H12.7155L13.7955 9.44H26.1955ZM51.3164 30.48C58.6764 30.48 60.9164 29.24 62.8764 26.24L62.2764 30H71.1164C71.6364 26.84 71.9964 24.8 72.4364 22.4C73.2764 17.6 73.4364 16.76 73.9964 13.6C74.9564 8.32 72.0364 5.92 59.3564 5.92C47.5164 5.92 44.4764 7.6 43.3564 14.32L51.7164 14.48C51.9564 12.96 52.3964 12.52 58.4364 12.52C64.2764 12.52 64.6764 13.24 64.2364 15.76L63.7564 18.48C62.5964 16.12 60.0364 15.6 53.1564 15.6C43.3964 15.6 41.4364 17.8 40.4764 23.12C39.5564 28.48 41.5564 30.48 51.3164 30.48ZM56.2764 24.4C50.1564 24.4 49.5964 23.92 49.8364 22.56C50.0764 21.2 50.6764 20.68 57.3164 20.68C62.9164 20.68 63.5564 21.2 63.3164 22.48V22.64C63.0764 23.92 62.2764 24.4 56.2764 24.4ZM75.3955 30C74.9555 32.36 74.5955 34.36 74.3555 35.6H83.8355C84.1155 33.96 84.7555 30.24 85.4755 26.24C86.6355 28.72 89.3155 30.48 95.1955 30.48C105.395 30.48 107.955 28.16 109.595 18.8L109.795 17.6C111.275 8.64 108.835 5.92 98.6355 5.92C92.5955 5.92 89.7155 7.8 87.9155 10.48L88.5955 6.4H79.5155C79.2355 8.16 78.9555 9.8 78.5955 11.88L75.3955 30ZM86.7955 18.36L86.8355 18.04C87.3955 14.96 88.5155 14.2 94.1155 14.2C99.8755 14.2 100.875 14.84 100.275 18.16C99.6755 21.48 98.4755 22.2 92.5555 22.2C87.1155 22.2 86.2355 21.44 86.7955 18.36ZM146.002 30.56C160.522 30.56 164.442 27.44 166.522 16.44L166.762 15.16C168.762 4.48 164.922 1.04 149.602 1.04C134.802 1.04 130.842 4.12 128.762 15.16L128.522 16.44C126.642 27.08 130.402 30.56 146.002 30.56ZM146.482 22.28C138.282 22.28 137.522 21.12 138.442 15.88V15.72C139.402 10.48 140.562 9.36 148.762 9.36C157.002 9.36 157.802 10.48 156.842 15.72V15.88C155.922 21.12 154.722 22.28 146.482 22.28ZM168.664 23.56C168.224 26.12 167.904 28 167.504 30H176.944C177.264 27.88 177.584 26.04 178.024 23.6L178.784 19.44C179.544 15.08 180.664 14.2 186.024 14.2C191.504 14.2 192.104 15.04 191.384 19.12L190.584 23.76C190.064 26.52 189.864 27.8 189.424 30H198.864C199.224 27.72 199.544 25.84 199.944 23.76L200.384 21.2C201.024 17.6 201.304 16.08 201.704 13.8C202.664 8.48 200.784 5.92 191.904 5.92C185.024 5.92 182.064 7.72 180.064 10.64L180.744 6.4H171.664C171.424 8.08 171.104 9.76 170.744 11.84L168.664 23.56ZM204.259 21.76C203.619 25.52 203.219 27.8 202.779 30H212.219C212.579 27.84 212.979 25.52 213.619 21.8L216.339 6.4C216.819 3.72 217.179 1.68 217.499 0.079999H208.059C207.819 1.72 207.459 3.76 206.979 6.44L204.259 21.76ZM238.493 28.56C242.293 23.04 250.013 11.84 253.813 6.4H243.173L237.493 14.84C236.693 16.04 235.933 17.28 235.213 18.48H233.573C233.133 17.28 232.653 16.12 232.173 14.96L228.533 6.4H218.453C220.933 11.84 224.133 19.52 226.413 25.24H230.693L230.453 25.64C229.213 27.8 228.573 28.44 225.973 28.44C224.293 28.44 222.413 28.4 219.613 28.16L218.253 35.56C220.533 35.88 222.973 35.96 224.853 35.96C232.373 35.96 234.333 34.52 238.493 28.56Z" fill="white"/>
</svg>
