<svg width="20" height="18" viewBox="0 0 20 18" fill="none" xmlns="http://www.w3.org/2000/svg">
<path d="M15 14.7242C15 16.1055 13.6 17.2242 11.875 17.2242C10.15 17.2242 8.75 16.1055 8.75 14.7242C8.75 13.343 10.15 12.2242 11.875 12.2242C13.6 12.2242 15 13.343 15 14.7242Z" fill="white"/>
<path fill-rule="evenodd" clip-rule="evenodd" d="M15 2.22424V14.7242H13.75V2.22424H15Z" fill="white"/>
<path d="M13.75 1.99925C13.7502 1.71038 13.8504 1.43049 14.0336 1.20716C14.2168 0.983839 14.4717 0.830863 14.755 0.774245L18.505 0.0242452C18.6863 -0.0119882 18.8733 -0.00756227 19.0527 0.0372042C19.2321 0.0819706 19.3993 0.165963 19.5423 0.28313C19.6852 0.400297 19.8005 0.547722 19.8796 0.714782C19.9588 0.881843 19.9999 1.06438 20 1.24925V3.47425L13.75 4.72425V1.99925Z" fill="white"/>
<path fill-rule="evenodd" clip-rule="evenodd" d="M0 12.8492C0 12.6835 0.065848 12.5245 0.183058 12.4073C0.300269 12.2901 0.45924 12.2242 0.625 12.2242H5C5.16576 12.2242 5.32473 12.2901 5.44194 12.4073C5.55915 12.5245 5.625 12.6835 5.625 12.8492C5.625 13.015 5.55915 13.174 5.44194 13.2912C5.32473 13.4084 5.16576 13.4742 5 13.4742H0.625C0.45924 13.4742 0.300269 13.4084 0.183058 13.2912C0.065848 13.174 0 13.015 0 12.8492ZM0 7.84924C0 7.68348 0.065848 7.52451 0.183058 7.4073C0.300269 7.29009 0.45924 7.22424 0.625 7.22424H10C10.1658 7.22424 10.3247 7.29009 10.4419 7.4073C10.5592 7.52451 10.625 7.68348 10.625 7.84924C10.625 8.015 10.5592 8.17397 10.4419 8.29118C10.3247 8.40839 10.1658 8.47424 10 8.47424H0.625C0.45924 8.47424 0.300269 8.40839 0.183058 8.29118C0.065848 8.17397 0 8.015 0 7.84924ZM0 2.84924C0 2.68348 0.065848 2.52451 0.183058 2.4073C0.300269 2.29009 0.45924 2.22424 0.625 2.22424H10C10.1658 2.22424 10.3247 2.29009 10.4419 2.4073C10.5592 2.52451 10.625 2.68348 10.625 2.84924C10.625 3.015 10.5592 3.17397 10.4419 3.29118C10.3247 3.4084 10.1658 3.47424 10 3.47424H0.625C0.45924 3.47424 0.300269 3.4084 0.183058 3.29118C0.065848 3.17397 0 3.015 0 2.84924Z" fill="white"/>
</svg>
